<?xml version="1.0" encoding="UTF-8" standalone="no"?>
<!-- Generator: Adobe Illustrator 16.0.0, SVG Export Plug-In . SVG Version: 6.00 Build 0)  -->

<svg
   xmlns:dc="http://purl.org/dc/elements/1.1/"
   xmlns:cc="http://creativecommons.org/ns#"
   xmlns:rdf="http://www.w3.org/1999/02/22-rdf-syntax-ns#"
   xmlns:svg="http://www.w3.org/2000/svg"
   xmlns="http://www.w3.org/2000/svg"
   xmlns:sodipodi="http://sodipodi.sourceforge.net/DTD/sodipodi-0.dtd"
   xmlns:inkscape="http://www.inkscape.org/namespaces/inkscape"
   version="1.1"
   id="Capa_1"
   x="0px"
   y="0px"
   width="64"
   height="64"
   viewBox="0 0 63.999997 63.999997"
   xml:space="preserve"
   sodipodi:docname="iconwhite.svg"
   inkscape:version="0.92.4 (5da689c313, 2019-01-14)"><metadata
   id="metadata41"><rdf:RDF><cc:Work
       rdf:about=""><dc:format>image/svg+xml</dc:format><dc:type
         rdf:resource="http://purl.org/dc/dcmitype/StillImage" /><dc:title></dc:title></cc:Work></rdf:RDF></metadata><defs
   id="defs39" /><sodipodi:namedview
   pagecolor="#ffffff"
   bordercolor="#666666"
   borderopacity="1"
   objecttolerance="10"
   gridtolerance="10"
   guidetolerance="10"
   inkscape:pageopacity="0"
   inkscape:pageshadow="2"
   inkscape:window-width="1920"
   inkscape:window-height="1027"
   id="namedview37"
   showgrid="false"
   inkscape:zoom="2.4237747"
   inkscape:cx="207.68367"
   inkscape:cy="142.54597"
   inkscape:window-x="-8"
   inkscape:window-y="-8"
   inkscape:window-maximized="1"
   inkscape:current-layer="g4" />
<g
   id="g4"
   transform="translate(0,-486.80103)">
	<path
   d="M 57.390176,510.30419 H 55.82651 v -7.19436 c 0,-0.0452 -0.0074,-0.0901 -0.01371,-0.13585 -0.0025,-0.28568 -0.09777,-0.56627 -0.302896,-0.78825 L 42.954585,488.50917 c -0.0038,-0.003 -0.0074,-0.005 -0.01006,-0.008 -0.07484,-0.0797 -0.162089,-0.14634 -0.254305,-0.20337 -0.02731,-0.0178 -0.05486,-0.0323 -0.08347,-0.0476 -0.07992,-0.0413 -0.164689,-0.076 -0.251941,-0.10099 -0.02365,-0.006 -0.04492,-0.0153 -0.06858,-0.0214 -0.09482,-0.0211 -0.193301,-0.0344 -0.293084,-0.0344 H 11.136839 c -1.409026,0 -2.5536962,1.09275 -2.5536962,2.43522 v 19.77536 h -1.563311 c -2.0156456,0 -3.650011,1.55778 -3.650011,3.48015 V 531.883 c 0,1.92148 1.6343654,3.48084 3.650011,3.48084 h 1.5634294 v 12.38947 c 0,1.34235 1.1446703,2.43522 2.5536948,2.43522 h 42.135976 c 1.407725,0 2.553696,-1.09276 2.553696,-2.43522 v -12.38982 h 1.563666 c 2.015055,0 3.649774,-1.55879 3.649774,-3.48015 v -18.09886 c -1.18e-4,-1.92238 -1.634838,-3.48027 -3.649893,-3.48027 z M 11.136839,490.52871 h 29.579478 v 12.45846 c 0,0.6727 0.572336,1.21755 1.276848,1.21755 h 11.279649 v 6.09992 H 11.136839 Z m 36.563599,38.59834 H 44.61425 l -0.207014,-5.23817 c -0.06231,-1.64572 -0.12473,-3.63415 -0.12473,-5.62496 h -0.06113 c -0.436374,1.74572 -1.016276,3.6957 -1.556216,5.30028 l -1.697026,5.33985 H 38.50299 l -1.492612,-5.29882 c -0.455172,-1.604 -0.932689,-3.55388 -1.264315,-5.34075 h -0.04114 c -0.08359,1.84854 -0.145891,3.96031 -0.248275,5.66533 l -0.249932,5.19836 h -2.921502 l 0.890837,-13.68557 h 4.205914 l 1.367764,4.56817 c 0.436374,1.58371 0.870384,3.28997 1.182148,4.89455 h 0.0616 c 0.39535,-1.5844 0.869674,-3.39043 1.326739,-4.91361 l 1.491311,-4.54924 h 4.123627 z m -27.43201,-11.08658 v -2.59946 h 10.731433 v 2.59946 h -3.811508 v 11.08669 h -3.170957 v -11.08669 z m -10.053402,5.36095 v 5.72563 H 7.0466703 v -13.68604 h 3.1683557 v 5.25958 h 5.201854 v -5.25958 h 3.150149 v 13.68604 H 15.41688 v -5.72632 h -5.201854 z m 43.057907,23.69237 H 11.136839 v -11.7303 h 42.135975 v 11.7303 z m 5.578642,-17.96674 h -8.723472 v -13.68604 h 3.169776 v 11.08634 h 5.553814 v 2.5997 z"
   id="path2"
   inkscape:connector-curvature="0"
   style="fill:#ffffff;fill-opacity:1;stroke-width:0.11544869" />
</g>
<g
   id="g6"
   transform="translate(0,-486.80103)">
</g>
<g
   id="g8"
   transform="translate(0,-486.80103)">
</g>
<g
   id="g10"
   transform="translate(0,-486.80103)">
</g>
<g
   id="g12"
   transform="translate(0,-486.80103)">
</g>
<g
   id="g14"
   transform="translate(0,-486.80103)">
</g>
<g
   id="g16"
   transform="translate(0,-486.80103)">
</g>
<g
   id="g18"
   transform="translate(0,-486.80103)">
</g>
<g
   id="g20"
   transform="translate(0,-486.80103)">
</g>
<g
   id="g22"
   transform="translate(0,-486.80103)">
</g>
<g
   id="g24"
   transform="translate(0,-486.80103)">
</g>
<g
   id="g26"
   transform="translate(0,-486.80103)">
</g>
<g
   id="g28"
   transform="translate(0,-486.80103)">
</g>
<g
   id="g30"
   transform="translate(0,-486.80103)">
</g>
<g
   id="g32"
   transform="translate(0,-486.80103)">
</g>
<g
   id="g34"
   transform="translate(0,-486.80103)">
</g>
</svg>